<svg width="20" height="20" viewBox="0 0 20 20" fill="none" xmlns="http://www.w3.org/2000/svg">
<path d="M11.1106 0.00620235C10.5617 -0.054777 10.0673 0.340767 10.0063 0.889675C9.94532 1.43858 10.3409 1.93299 10.8898 1.99397C12.6936 2.19436 14.3756 3.00213 15.6598 4.28465C16.9439 5.56717 17.7538 7.2482 17.9564 9.05175C18.0181 9.60058 18.513 9.9955 19.0619 9.93383C19.6107 9.87216 20.0056 9.37725 19.9439 8.82842C19.6906 6.57399 18.6783 4.47269 17.0731 2.86954C15.4679 1.2664 13.3654 0.256687 11.1106 0.00620235Z" fill="#7C3AED"/>
<path d="M11.1917 4.01859C10.6496 3.91284 10.1245 4.26653 10.0187 4.80859C9.91294 5.35066 10.2666 5.87582 10.8087 5.98158C11.5901 6.13403 12.3082 6.51619 12.8711 7.07913C13.4341 7.64207 13.8162 8.36019 13.9687 9.14158C14.0745 9.68365 14.5996 10.0373 15.1417 9.93158C15.6837 9.82582 16.0374 9.30066 15.9317 8.75859C15.703 7.58651 15.1298 6.50933 14.2854 5.66492C13.4409 4.8205 12.3638 4.24727 11.1917 4.01859Z" fill="#7C3AED"/>
<path d="M5.22108 9.8214C4.93178 10.1713 4.64256 10.5212 4.35581 10.8727C5.65575 12.9961 7.43655 14.7096 9.62192 15.934C9.90595 15.6532 10.1907 15.3732 10.4754 15.0931C11.0696 14.5086 11.6638 13.9241 12.2517 13.3336C12.5751 13.0087 12.8998 12.6826 13.306 12.4936C13.66 12.3288 14.0476 12.2493 14.4378 12.2612C14.8857 12.275 15.3125 12.4469 15.7378 12.618C15.9985 12.723 16.2623 12.8237 16.5266 12.9246C17.1258 13.1534 17.7274 13.383 18.2997 13.6646C18.5539 13.7896 18.8127 13.9459 19.0395 14.1847C19.3713 14.534 19.5951 14.9716 19.684 15.4451C19.7448 15.7688 19.72 16.0701 19.6725 16.3494C19.5561 17.0342 19.3746 17.7123 19.1939 18.3874C19.1175 18.6729 19.0413 18.9578 18.9702 19.2424C18.8589 19.6876 18.4589 20 18 20C15.0498 20 11.9693 19.4282 9.33815 18.0469C6.33249 16.5409 3.89497 14.2017 2.27669 11.2761C0.676245 8.49708 0 5.1814 0 2.00001C0 1.54116 0.312281 1.14118 0.757432 1.02988L2.75684 0.529955C3.08947 0.446777 3.39169 0.371203 3.65037 0.327241C3.92965 0.279778 4.23097 0.254952 4.55463 0.315723C5.02809 0.404622 5.46578 0.62842 5.81506 0.960196C6.05382 1.187 6.21012 1.4458 6.33516 1.70001C6.63546 2.3105 6.88004 2.95232 7.12369 3.59171C7.23198 3.87591 7.3401 4.15962 7.45284 4.43989C7.60328 4.81387 7.75453 5.18988 7.78168 5.58828C7.80537 5.93591 7.75613 6.28467 7.63712 6.61215C7.50072 6.98746 7.25127 7.3069 7.00317 7.6246C6.42326 8.36721 5.82203 9.09448 5.22108 9.8214Z" fill="#7C3AED"/>
</svg>
