<svg width="56" height="56" viewBox="0 0 56 56" fill="none" xmlns="http://www.w3.org/2000/svg">
<g clip-path="url(#clip0_2185_1186)">
<path d="M55.628 23.6054L50.0455 12.436C49.8399 12.0249 49.5553 11.6583 49.2079 11.3572C48.8606 11.0561 48.4573 10.8264 48.0212 10.6811C47.5851 10.5359 47.1246 10.478 46.6661 10.5107C46.2076 10.5435 45.76 10.6662 45.349 10.8719L39.9087 13.591L28.4483 10.5591C28.1543 10.4826 27.8455 10.4826 27.5515 10.5591L16.0912 13.591L10.6508 10.8719C10.2398 10.6662 9.7922 10.5435 9.33369 10.5107C8.87519 10.478 8.41472 10.5359 7.97859 10.6811C7.54247 10.8264 7.13922 11.0561 6.79189 11.3572C6.44455 11.6583 6.15993 12.0249 5.95428 12.436L0.371779 23.6032C0.166058 24.0142 0.0433268 24.4618 0.0105941 24.9203C-0.0221386 25.3788 0.0357685 25.8393 0.181008 26.2754C0.326248 26.7115 0.555976 27.1148 0.857073 27.4621C1.15817 27.8094 1.52474 28.0941 1.93584 28.2997L7.84209 31.255L19.9805 39.9241C20.1595 40.0512 20.3605 40.1439 20.5733 40.1975L34.5733 43.6975C34.8665 43.7711 35.1738 43.7674 35.4651 43.6869C35.7565 43.6064 36.022 43.4518 36.2358 43.2382L48.2824 31.1894L54.0618 28.2997C54.8915 27.8844 55.5223 27.1566 55.8156 26.2763C56.1089 25.396 56.0406 24.4353 55.6258 23.6054H55.628ZM43.6208 30.905L36.0937 24.8763C35.7564 24.6062 35.3313 24.4705 34.8999 24.4951C34.4686 24.5197 34.0617 24.703 33.7574 25.0097C29.8615 28.9341 25.5193 28.4375 22.7499 26.6875L32.2087 17.5H39.1671L45.1193 29.4022L43.6208 30.905ZM9.08459 14L13.5624 16.2357L7.96897 27.4028L3.4999 25.1694L9.08459 14ZM34.4596 40.0597L21.748 36.8835L10.9855 29.1966L17.1105 16.9466L27.9999 14.0613L30.1437 14.6279L20.2999 24.1829L20.2824 24.2025C19.9119 24.5731 19.6292 25.0221 19.4554 25.5165C19.2816 26.0108 19.221 26.5379 19.2781 27.0589C19.3352 27.5798 19.5086 28.0812 19.7854 28.5262C20.0622 28.9711 20.4354 29.3483 20.8774 29.6297C25.3749 32.5019 30.8021 32.036 35.0765 28.536L41.1249 33.3944L34.4596 40.0597ZM48.0221 27.4007L42.4396 16.2444L46.9152 14L52.4999 25.1694L48.0221 27.4007ZM28.8268 47.6722C28.7322 48.0505 28.5141 48.3863 28.207 48.6264C27.8999 48.8666 27.5213 48.9973 27.1315 48.9979C26.9877 48.9979 26.8444 48.9803 26.7049 48.9454L17.5896 46.666C17.3764 46.6133 17.1752 46.5205 16.9968 46.3925L11.2327 42.2757C10.8783 41.9974 10.6449 41.5931 10.5811 41.1471C10.5173 40.701 10.628 40.2475 10.8901 39.881C11.1523 39.5145 11.5458 39.2633 11.9885 39.1797C12.4313 39.096 12.8893 39.1864 13.2671 39.4319L18.7599 43.3563L27.5624 45.5525C28.0126 45.6651 28.3996 45.9519 28.6383 46.3499C28.8771 46.7478 28.948 47.2242 28.8355 47.6744L28.8268 47.6722Z" fill="#22C55E"/>
</g>
<defs>
<clipPath id="clip0_2185_1186">
<rect width="56" height="56" fill="white"/>
</clipPath>
</defs>
</svg>
